# xmcd
#
# Track frame offsets: 
#        150
#        17100
#        32250
#        52275
#        70875
#        87375
#        114075
#        138750
#        154125
#        172200
#        191850
#        208650
#        229725
#        245475
#        270525
#        288900
#        307650
#        324000
#
# Disc length: 4590 seconds
#
# Revision: 25
# Processed by: cddbd v1.5.2PL0 Copyright (c) Steve Scherf et al.
# Submitted via: ExactAudioCopyFreeDBPlugin 1.0
#
DISCID=f411ec12
DTITLE=Various Artist - Kuschelrock 7 [CD 2)
DYEAR=1993
DGENRE=Rock
TTITLE0=A-Ha - Dark Is The Night
TTITLE1=Tasmin Archer - Sleeping Satellite  (Acoustic)
TTITLE2=Patty Smyth and Don Henley - Sometimes Love Just Ain't Enough
TTITLE3=Michael Bolton - To Love Somebody
TTITLE4=Gloria Estefan - I See Your Smile
TTITLE5=George Michael - Tonight
TTITLE6=Frankie Goes To Hollywood - The Power Of Love
TTITLE7=Shakespear's Sister - Hello (Turn Your Radio On)
TTITLE8=Firehouse - When I Look Into Your Eyes
TTITLE9=Soul Asylum - Runaway Train
TTITLE10=Richard Marx - Chains Around My Heart
TTITLE11=Zucchero and Randy Crawford - Diamante
TTITLE12=Dob Russkin - Heart Of Hearts
TTITLE13=George Benson - The Greatest Love Of All
TTITLE14=Céline Dion and Peabo Bryson - Beauty And The Beast
TTITLE15=Stephen Bishop - It Might Be You
TTITLE16=Vanessa Williams - Save The Best For Last
TTITLE17=Brian May - Too Much Love Will Kill You
EXTD=YEAR: 0
EXTT0=
EXTT1=Accoustic Version
EXTT2=
EXTT3=
EXTT4=
EXTT5=
EXTT6=
EXTT7=
EXTT8=
EXTT9=
EXTT10=
EXTT11=
EXTT12=
EXTT13=
EXTT14=
EXTT15=
EXTT16=
EXTT17=
PLAYORDER=
